<svg version="1.1" xmlns="http://www.w3.org/2000/svg" xmlns:xlink="http://www.w3.org/1999/xlink" width="780" height="380" viewBox="0,0,780,380"><g fill="none" fill-rule="nonzero" stroke="none" stroke-width="none" stroke-linecap="none" stroke-linejoin="miter" stroke-miterlimit="10" stroke-dasharray="" stroke-dashoffset="0" font-family="none" font-weight="none" font-size="none" text-anchor="none" style="mix-blend-mode: normal"><path d="M0,380v-380h780v380z" fill="#ffffff" stroke="none" stroke-width="1" stroke-linecap="butt"/><g fill="none" stroke="none" stroke-width="1" stroke-linecap="butt" font-family="sans-serif" font-weight="normal" font-size="12" text-anchor="start"/><g fill="none" stroke="none" stroke-width="1" stroke-linecap="butt" font-family="sans-serif" font-weight="normal" font-size="12" text-anchor="start"/><g fill="none" stroke="none" stroke-width="1" stroke-linecap="butt" font-family="sans-serif" font-weight="normal" font-size="12" text-anchor="start"/><g fill="none" stroke="none" stroke-width="1" stroke-linecap="butt" font-family="sans-serif" font-weight="normal" font-size="12" text-anchor="start"/><g fill="none" stroke="none" stroke-width="1" stroke-linecap="butt" font-family="sans-serif" font-weight="normal" font-size="12" text-anchor="start"/><g fill="none" stroke="none" stroke-width="1" stroke-linecap="butt" font-family="sans-serif" font-weight="normal" font-size="12" text-anchor="start"/><g fill="none" stroke="none" stroke-width="1" stroke-linecap="butt" font-family="sans-serif" font-weight="normal" font-size="12" text-anchor="start"/><g fill="none" stroke="none" stroke-width="1" stroke-linecap="butt" font-family="sans-serif" font-weight="normal" font-size="12" text-anchor="start"/><g fill="none" stroke="none" stroke-width="1" stroke-linecap="butt" font-family="sans-serif" font-weight="normal" font-size="12" text-anchor="start"/><g fill="none" stroke="none" stroke-width="1" stroke-linecap="butt" font-family="sans-serif" font-weight="normal" font-size="12" text-anchor="start"/><g fill="none" stroke="none" stroke-width="1" stroke-linecap="butt" font-family="sans-serif" font-weight="normal" font-size="12" text-anchor="start"/><g fill="none" stroke="none" stroke-width="1" stroke-linecap="butt" font-family="sans-serif" font-weight="normal" font-size="12" text-anchor="start"/><g fill="none" stroke="none" stroke-width="1" stroke-linecap="butt" font-family="sans-serif" font-weight="normal" font-size="12" text-anchor="start"/><g fill="none" stroke="none" stroke-width="1" stroke-linecap="butt" font-family="sans-serif" font-weight="normal" font-size="12" text-anchor="start"/><g fill="none" stroke="none" stroke-width="1" stroke-linecap="butt" font-family="sans-serif" font-weight="normal" font-size="12" text-anchor="start"/><g fill="none" stroke="none" stroke-width="1" stroke-linecap="butt" font-family="sans-serif" font-weight="normal" font-size="12" text-anchor="start"/><g fill="none" stroke="none" stroke-width="1" stroke-linecap="butt" font-family="sans-serif" font-weight="normal" font-size="12" text-anchor="start"/><g fill="none" stroke="none" stroke-width="1" stroke-linecap="butt" font-family="sans-serif" font-weight="normal" font-size="12" text-anchor="start"/><g><path d="M78.45645,290.23208c-0.81597,0.05991 -1.78634,0 -1.78634,0c0,0 -5.54638,-0.40542 -8.24627,-1.21385c-2.70257,-0.80924 -5.37775,-2.04538 -7.9608,-3.64156c-2.63167,-1.62623 -5.20274,-3.69311 -7.67532,-6.06927c-2.55496,-2.45533 -5.0401,-5.37568 -7.38985,-8.49698c-2.40406,-3.19345 -4.70997,-6.75354 -6.85564,-10.48783c-2.17518,-3.78563 -4.20707,-7.84314 -6.09532,-12.09174c-1.92795,-4.33794 -3.70123,-8.93189 -5.33499,-13.69565c-1.67726,-4.8906 -3.20724,-10.0623 -4.57467,-15.29956c-1.38491,-5.30424 -2.62195,-10.80716 -3.67019,-16.33555c-1.04939,-5.53446 -1.9235,-11.16652 -2.62157,-16.85354c-0.70218,-5.72052 -1.22339,-11.5256 -1.57294,-17.37154c-0.35318,-5.9066 -0.56748,-11.28534 -0.52431,-17.88953c0.05363,-8.2054 0.36809,-18.60636 1.17017,-27.58476c0.78026,-8.73413 1.92986,-17.32536 3.5105,-25.58768c1.55368,-8.12142 3.50359,-16.0447 5.85083,-23.59059c2.33691,-7.51269 5.1341,-14.91002 8.19116,-21.5935c2.96564,-6.48363 6.28117,-12.75136 9.81921,-17.99875c3.34192,-4.95653 6.93288,-9.39715 10.73499,-12.85625c3.67457,-3.34306 7.61521,-5.99958 11.65077,-7.71375c4.03679,-1.71469 8.77065,-2.46199 12.56655,-2.57125c3.13276,-0.09018 5.77388,0.42339 8.59534,1.25754c2.83571,0.83837 5.64836,2.12261 8.37488,3.77262c2.78613,1.68608 5.51632,3.82857 8.15441,6.2877c2.73039,2.54517 7.93394,8.80278 7.93394,8.80278v13.33056c0,0 -5.09403,-7.15069 -7.80675,-10.06969c-2.60234,-2.80022 -5.3186,-5.26149 -8.11201,-7.19263c-2.72093,-1.88103 -5.55276,-3.35656 -8.41727,-4.31558c-2.84937,-0.95395 -8.72253,-1.43853 -8.72253,-1.43853c0,0 -7.83121,0.78856 -11.53489,2.36842c-3.70155,1.57895 -7.31481,4.02607 -10.68129,7.10526c-3.48358,3.18629 -6.77091,7.27739 -9.82769,11.8421c-3.2371,4.83399 -6.26586,10.60612 -8.97409,16.57894c-2.7944,6.16286 -5.34624,12.98462 -7.47888,19.9147c-2.14529,6.97116 -3.92392,14.29345 -5.34206,21.79945c-1.44463,7.64619 -2.49282,15.59807 -3.20523,23.6842c-0.73305,8.32034 -1.06835,17.04519 -1.06841,25.56895c-0.00006,8.52532 0.33565,17.2531 1.06841,25.57832c0.71241,8.09398 1.76102,16.05478 3.20523,23.71229c1.41826,7.51989 3.19719,14.85723 5.34206,21.84626c2.13285,6.94986 4.68503,13.79221 7.47888,19.98023c2.70856,5.99911 5.73594,11.80584 8.97409,16.66631c3.05608,4.58718 6.34296,8.70091 9.82769,11.90451c3.36563,3.09411 6.97901,5.55544 10.68129,7.14271c3.70306,1.5876 7.95547,2.30707 11.53489,2.3809c3.10768,0.06411 5.87303,-0.48343 8.72253,-1.43541c2.86437,-0.95694 5.69615,-2.42905 8.41727,-4.30622c2.79318,-1.92687 5.50947,-4.38257 8.11201,-7.17703c2.71246,-2.91248 7.80675,-10.04784 7.80675,-10.04784v13.28063c0,0 -4.95372,6.25973 -7.57781,8.80278c-2.54129,2.46281 -5.18815,4.60347 -7.90003,6.2877c-2.66491,1.65507 -5.4285,2.93426 -8.22225,3.77262c-2.79511,0.83877 -6.75588,1.12622 -8.54447,1.25754zM164.24594,290.23208c0,0 -5.11986,-0.53853 -7.53824,-1.60703c-2.42484,-1.07136 -4.78956,-2.73867 -6.9899,-4.82109c-2.28726,-2.16469 -4.4396,-4.94563 -6.44156,-8.03515c-2.12859,-3.28494 -4.11425,-7.21647 -5.89322,-11.24922c-1.83232,-4.15368 -3.50539,-8.73392 -4.90678,-13.36176c-1.40303,-4.63324 -2.57323,-9.47293 -3.50484,-14.42271c-0.94393,-5.01522 -1.63553,-10.2106 -2.10291,-15.48366c-0.47842,-5.39769 -0.70313,-11.03324 -0.70097,-16.54462c0.00216,-5.50484 0.22503,-11.12825 0.71227,-16.50405c0.47493,-5.23994 1.17641,-10.39732 2.13682,-15.36197c0.94625,-4.8914 2.13489,-9.66603 3.56137,-14.21988c1.42359,-4.54462 3.12472,-9.02876 4.98592,-13.0778c1.80798,-3.93326 3.82849,-7.73929 5.98791,-10.92157c2.04284,-3.01048 4.24064,-5.70332 6.56734,-7.80112c2.25322,-2.03156 4.67083,-3.64052 7.14677,-4.68067c2.48131,-1.04241 5.15128,-1.56041 7.7262,-1.56022c2.57399,0.00019 5.24227,0.51714 7.72055,1.56022c2.47131,1.04015 4.88361,2.6486 7.12981,4.68067c2.31864,2.0976 4.50712,4.79059 6.53907,7.80112c2.14785,3.18224 4.1524,6.98879 5.94834,10.92157c1.85044,4.05212 3.54159,8.53871 4.95624,13.08716c1.41891,4.56213 2.59975,9.34643 3.54017,14.24797c0.95532,4.97918 1.652,10.15216 2.1241,15.40877c0.48465,5.39635 0.70509,11.04182 0.70803,16.56958c0.00295,5.5363 -0.21913,11.20221 -0.69249,16.62263c-0.46173,5.28728 -1.14365,10.4943 -2.07747,15.51799c-0.91994,4.94903 -2.07458,9.78636 -3.46244,14.41335c-1.38354,4.61259 -3.03482,9.17597 -4.84742,13.30871c-1.75691,4.00575 -3.71446,7.90494 -5.82539,11.16184c-1.98943,3.06945 -4.13572,5.82683 -6.41895,7.97275c-2.20374,2.07121 -4.57733,3.72061 -7.01251,4.78365c-2.43749,1.06404 -6.05554,1.43276 -7.60607,1.59455c-0.67851,0.0708 -1.46977,0 -1.46977,0zM198.4351,205.60552c-0.00049,-4.89549 -0.19396,-9.90655 -0.61476,-14.69419c-0.40991,-4.66376 -1.01451,-9.25415 -1.84428,-13.67693c-0.81644,-4.35175 -1.841,-8.60188 -3.0738,-12.65966c-1.22789,-4.04161 -2.69573,-8.02874 -4.30332,-11.64239c-1.55975,-3.5061 -3.30309,-6.91366 -5.16823,-9.76388c-1.75578,-2.68311 -3.64272,-5.09581 -5.6459,-6.9742c-1.92881,-1.80865 -4.00027,-3.25463 -6.12358,-4.18452c-2.11866,-0.92786 -6.60126,-1.39484 -6.60126,-1.39484c0,0 -4.48082,0.472 -6.60126,1.4042c-2.1294,0.93614 -4.20781,2.39399 -6.14619,4.21261c-2.01646,1.89187 -3.91791,4.32139 -5.69113,7.02101c-1.88534,2.87032 -3.65227,6.3004 -5.23606,9.82941c-1.63246,3.63746 -3.13088,7.65319 -4.38247,11.71728c-1.25324,4.06946 -2.29838,8.32703 -3.13033,12.68462c-0.84343,4.41768 -1.46076,8.99958 -1.8782,13.65196c-0.42766,4.76633 -0.62622,9.74803 -0.62607,14.6193c0.00016,4.86765 0.19773,9.84248 0.62607,14.59746c0.41745,4.63409 1.03383,9.19514 1.8782,13.58643c0.83166,4.32521 1.87615,8.54758 3.13033,12.57541c1.25111,4.01797 2.74951,7.97945 4.38247,11.56438c1.58505,3.47976 3.35494,6.85332 5.24172,9.67651c1.77869,2.66147 3.68702,5.05077 5.70809,6.91179c1.94817,1.79389 4.03617,3.2255 6.17446,4.14708c2.13381,0.91965 4.42854,1.38289 6.64083,1.38236c2.20974,-0.00053 4.49982,-0.46084 6.62528,-1.38236c2.12558,-0.92157 4.19896,-2.35182 6.12782,-4.14708c1.99894,-1.86048 3.88156,-4.25024 5.63036,-6.91179c1.85497,-2.82314 3.58444,-6.19806 5.1329,-9.67651c1.59752,-3.58868 3.0545,-7.55443 4.27365,-11.57374c1.22488,-4.03824 2.24193,-8.26988 3.0526,-12.60349c0.82448,-4.40742 1.42448,-8.98331 1.83156,-13.63324c0.41815,-4.77633 0.61101,-9.77275 0.61052,-14.66299zM287.00585,16.6811h5.22335v269.60674h-5.22335v-39.19283c0,0 -3.56577,12.4356 -5.98084,17.74911c-2.33183,5.13036 -5.16271,9.909 -8.1742,13.70501c-2.87589,3.62508 -6.1405,6.81354 -9.4122,8.76222c-3.09626,1.84419 -9.64962,2.92074 -9.64962,2.92074c0,0 -5.2634,-0.51666 -7.75164,-1.56022c-2.4801,-1.04015 -4.90105,-2.64777 -7.15525,-4.68067c-2.32559,-2.09728 -4.52097,-4.78973 -6.55886,-7.80112c-2.15315,-3.1817 -4.16588,-6.98382 -5.96247,-10.92157c-1.85153,-4.05815 -3.53558,-8.55588 -4.94635,-13.12149c-1.41825,-4.58983 -2.59506,-9.41003 -3.53311,-14.35094c-0.95505,-5.03045 -1.64869,-10.26156 -2.11986,-15.5804c-0.48462,-5.47065 -0.70662,-11.20657 -0.70662,-16.80986c0,-5.60329 0.222,-11.3392 0.70662,-16.80986c0.47117,-5.31884 1.16482,-10.54994 2.11986,-15.5804c0.93804,-4.94091 2.11485,-9.76111 3.53311,-14.35094c1.41077,-4.5656 3.09482,-9.06333 4.94635,-13.12149c1.7966,-3.93774 3.80933,-7.73987 5.96247,-10.92157c2.03789,-3.01139 4.23327,-5.70384 6.55886,-7.80112c2.2542,-2.0329 4.67515,-3.64052 7.15525,-4.68067c2.48824,-1.04357 5.01567,-1.68943 7.75164,-1.56022c3.11042,0.14689 6.74811,1.07823 9.92096,2.95819c3.33041,1.97331 6.65139,5.19291 9.54787,8.87456c3.01617,3.83378 5.84652,8.67119 8.11767,13.85479c2.33718,5.33432 5.63036,17.79904 5.63036,17.79904zM220.25557,205.60552c-0.00072,4.89022 0.19237,9.88665 0.61052,14.66299c0.40709,4.64993 1.00708,9.22582 1.83156,13.63324c0.81068,4.33361 1.82772,8.56525 3.0526,12.60349c1.21914,4.01932 2.67593,7.98515 4.27365,11.57374c1.54873,3.47856 3.27853,6.85356 5.13431,9.67651c1.74987,2.66184 3.63401,5.05144 5.6346,6.91179c1.93094,1.79559 4.00677,3.2255 6.13489,4.14708c2.12853,0.92175 4.42297,1.38217 6.63517,1.38236c2.21313,0.00019 4.50701,-0.46271 6.64083,-1.38236c2.13828,-0.92157 4.22629,-2.35318 6.17446,-4.14708c2.02107,-1.86102 3.9294,-4.25032 5.70809,-6.91179c1.88677,-2.82319 3.65666,-6.19675 5.24172,-9.67651c1.63296,-3.58493 3.13135,-7.54642 4.38247,-11.56438c1.25418,-4.02783 2.29867,-8.25019 3.13033,-12.57541c0.84437,-4.39129 1.46075,-8.95235 1.8782,-13.58643c0.42834,-4.75498 0.62591,-9.72981 0.62607,-14.59746c0.00016,-4.87127 -0.1984,-9.85297 -0.62607,-14.6193c-0.41744,-4.65238 -1.03477,-9.23428 -1.8782,-13.65196c-0.83196,-4.35759 -1.8771,-8.61516 -3.13033,-12.68462c-1.25158,-4.06409 -2.74981,-8.07991 -4.38247,-11.71728c-1.58407,-3.52912 -3.35133,-6.95928 -5.23748,-9.82941c-1.77429,-2.69991 -3.67726,-5.12927 -5.69537,-7.02101c-1.94046,-1.81895 -4.02132,-3.27647 -6.15326,-4.21261c-2.1235,-0.93243 -6.61115,-1.4042 -6.61115,-1.4042c0,0 -4.48194,0.46681 -6.59984,1.39484c-2.12216,0.92989 -4.19229,2.37575 -6.11934,4.18452c-2.00118,1.87835 -3.88578,4.29109 -5.63884,6.9742c-1.86225,2.85022 -3.59909,6.2591 -5.15834,9.76388c-1.60815,3.61471 -3.08244,7.60047 -4.31322,11.64239c-1.23552,4.05752 -2.26253,8.30769 -3.08087,12.65966c-0.83162,4.42258 -1.43767,9.01306 -1.84852,13.67693c-0.42175,4.78754 -0.61545,9.79869 -0.61617,14.69419zM313.86877,124.87328h5.22335v161.41455h-5.22335zM316.46914,85.33096l-3.52745,-2.42147c0,0 -1.17487,-4.83964 -1.17582,-7.2644c-0.00095,-2.43064 1.17582,-7.30185 1.17582,-7.30185l3.52745,-2.43395l3.54441,2.43395c0,0 1.18242,4.87121 1.18147,7.30185c-0.00095,2.42477 -1.18147,7.2644 -1.18147,7.2644zM345.95504,192.12518c-0.36701,16.50989 0,94.16265 0,94.16265h-5.22335v-161.76404h5.22335v32.7023c0,0 2.90846,-11.31671 4.88134,-16.03286c1.82068,-4.3523 3.92652,-8.36537 6.34546,-11.45205c2.32302,-2.96428 4.99901,-5.3441 7.80958,-6.87123c2.87434,-1.56178 6.44579,-2.2228 9.2737,-2.29041c2.37425,-0.05676 4.46158,0.42733 6.56593,1.30123c2.08893,0.8675 4.12631,2.20378 6.01759,3.90368c1.94416,1.74743 3.77627,3.99129 5.46925,6.50613c1.78493,2.65144 3.44339,5.81955 4.92091,9.10859c1.52554,3.39594 2.90098,7.16478 4.05601,10.99646c1.16669,3.87037 2.12873,7.94281 2.89715,12.11982c0.78572,4.27108 1.35191,8.71767 1.73829,13.24318c0.39876,4.67049 0.44058,7.47427 0.57943,14.36654c0.35514,17.62795 0,94.16265 0,94.16265h-5.20073c0,0 0.3399,-77.65202 0,-94.16265c-0.12147,-5.90038 -0.15625,-8.08869 -0.49463,-12.00124c-0.32981,-3.81344 -0.81638,-7.56817 -1.4839,-11.18993c-0.65694,-3.56435 -1.4811,-7.0478 -2.47317,-10.37861c-0.98788,-3.31674 -2.1686,-6.59357 -3.46244,-9.56729c-1.25379,-2.88167 -2.64903,-5.69159 -4.15493,-8.03827c-1.4173,-2.20861 -2.94584,-4.19554 -4.57325,-5.74162c-1.56822,-1.48985 -3.25773,-2.67942 -4.99157,-3.44497c-1.73335,-0.76534 -5.40989,-1.14832 -5.40989,-1.14832c0,0 -3.6887,0.38817 -5.44098,1.14832c-1.76474,0.76556 -3.49047,1.95897 -5.10746,3.44497c-1.68404,1.54762 -3.27896,3.53348 -4.77393,5.74162c-1.58897,2.34699 -3.09227,5.15048 -4.44041,8.03827c-1.38599,2.96887 -2.67082,6.24191 -3.73944,9.56729c-1.06799,3.32341 -1.96097,6.80812 -2.67103,10.37861c-0.71914,3.61616 -1.24643,7.3735 -1.60262,11.18993c-0.36489,3.90969 -0.40303,6.10012 -0.53421,12.00124zM494.1081,164.76509v-40.2413h5.20073c0,0 0.43271,120.44343 0,146.68604c-0.15885,9.63394 -0.19347,13.37729 -0.6515,19.74308c-0.43463,6.04048 -1.05279,11.93878 -1.95451,17.54004c-0.85885,5.33497 -1.91889,10.5089 -3.25752,15.337c-1.28664,4.64057 -2.81815,9.11662 -4.56053,13.13397c-1.66873,3.84754 -3.5561,7.48778 -5.61764,10.55024c-1.97031,2.92693 -4.13003,5.5181 -6.42884,7.53588c-2.26239,1.98582 -4.71801,3.51665 -7.24004,4.52153c-2.57081,1.02431 -8.05124,1.50718 -8.05124,1.50718c0,0 -6.20656,-0.83862 -9.16912,-2.34658c-3.07449,-1.56493 -6.15861,-4.11522 -8.92039,-7.03973c-2.82126,-2.9875 -5.52955,-6.71729 -7.8011,-10.77179c-2.28483,-4.07819 -5.85648,-13.6426 -5.85648,-13.6426v-16.52589c0,0 3.21198,11.00069 5.42685,15.80195c2.20543,4.7808 4.9386,9.32358 7.82371,12.9561c2.78966,3.51234 5.96733,6.69692 9.14651,8.61244c3.00057,1.80791 6.46981,2.71428 9.35001,2.87081c2.44803,0.13304 4.64919,-0.43286 6.83162,-1.33555c2.15273,-0.89041 4.24851,-2.25555 6.18152,-4.00666c1.9772,-1.79114 3.83236,-4.09286 5.53143,-6.67776c1.78727,-2.71908 3.42827,-5.94072 4.88134,-9.34886c1.52356,-3.57347 2.86928,-7.55821 3.99665,-11.68296c1.17355,-4.29368 2.10211,-8.8909 2.85475,-13.63012c0.79032,-4.97648 1.33196,-10.21392 1.71285,-15.57728c0.40136,-5.65167 0.46824,-11.21558 0.57095,-17.52444c0.1204,-7.39595 0,-24.11482 0,-24.11482c0,0 -3.31332,12.46681 -5.66428,17.79904c-2.28679,5.1867 -5.1393,10.02198 -8.1742,13.85479c-2.91684,3.68372 -6.2646,6.90114 -9.61005,8.87456c-3.18044,1.87608 -9.92662,2.95819 -9.92662,2.95819c0,0 -5.22442,-0.51848 -7.69652,-1.56022c-2.46831,-1.04015 -4.87859,-2.65008 -7.12557,-4.68067c-2.32176,-2.09817 -4.515,-4.79152 -6.55462,-7.80112c-2.15701,-3.18283 -4.17701,-6.98624 -5.98367,-10.92157c-1.86144,-4.05464 -3.56379,-8.5409 -4.98592,-13.10276c-1.42944,-4.58529 -2.61583,-9.40394 -3.56137,-14.3447c-0.96272,-5.03052 -1.66188,-10.26433 -2.13682,-15.58664c-0.4886,-5.47536 -0.71241,-11.22062 -0.71227,-16.82858c0.00013,-5.60485 0.22385,-11.33961 0.71227,-16.80986c0.47494,-5.31926 1.17439,-10.55075 2.13682,-15.5804c0.94562,-4.94179 2.13226,-9.76218 3.56137,-14.35094c1.42229,-4.56686 3.12388,-9.06285 4.98592,-13.12149c1.80629,-3.93712 3.82666,-7.73874 5.98367,-10.92157c2.03962,-3.00961 4.23286,-5.70295 6.55462,-7.80112c2.24698,-2.0306 4.65726,-3.64052 7.12557,-4.68067c2.4721,-1.04175 4.95469,-1.67091 7.69652,-1.56022c3.1743,0.12814 6.98466,1.0334 10.23188,2.92074c3.35099,1.94765 6.65469,5.09494 9.53091,8.76222c2.99411,3.81759 5.76486,8.65761 8.00461,13.87975c2.33486,5.4439 5.60775,18.27335 5.60775,18.27335zM427.17692,205.7553c0,4.91679 0.19714,9.94816 0.62607,14.75036c0.41745,4.67375 1.03282,9.27185 1.8782,13.69565c0.83135,4.35041 1.87484,8.59565 3.13033,12.64094c1.25047,4.02909 2.74881,7.99662 4.38247,11.58622c1.58462,3.48186 3.35494,6.85332 5.24172,9.67651c1.77869,2.66147 3.68702,5.05077 5.70809,6.91179c1.94817,1.79389 4.03617,3.2255 6.17446,4.14708c2.13381,0.91965 4.4277,1.38255 6.64083,1.38236c2.2122,-0.00019 4.50664,-0.46061 6.63517,-1.38236c2.12812,-0.92157 4.20394,-2.35149 6.13489,-4.14708c2.00059,-1.86035 3.88473,-4.24995 5.6346,-6.91179c1.85578,-2.82295 3.58583,-6.19677 5.13431,-9.67651c1.59811,-3.59128 3.05486,-7.56057 4.27365,-11.58622c1.22562,-4.04823 2.2421,-8.29293 3.0526,-12.64094c0.82504,-4.42599 1.42447,-9.02305 1.83156,-13.69565c0.41848,-4.80331 0.61052,-9.83357 0.61052,-14.75036c0,-4.91679 -0.19204,-9.94705 -0.61052,-14.75036c-0.40709,-4.6726 -1.00652,-9.26965 -1.83156,-13.69565c-0.81051,-4.348 -1.82699,-8.59271 -3.0526,-12.64094c-1.21878,-4.02565 -2.67487,-7.99772 -4.27365,-11.58622c-1.54808,-3.47472 -3.2788,-6.83834 -5.13431,-9.65467c-1.75004,-2.65623 -3.63429,-5.04017 -5.6346,-6.89619c-1.93115,-1.79186 -4.00695,-3.21822 -6.13489,-4.13771c-2.12869,-0.91982 -6.63517,-1.37924 -6.63517,-1.37924c0,0 -4.50686,0.46152 -6.64083,1.37924c-2.1381,0.91949 -4.22608,2.34755 -6.17446,4.13771c-2.02078,1.85669 -3.92922,4.24034 -5.70809,6.89619c-1.88651,2.81657 -3.6575,6.17781 -5.24172,9.65467c-1.63432,3.58682 -3.132,7.55714 -4.38247,11.58622c-1.25549,4.04529 -2.29898,8.29052 -3.13033,12.64094c-0.84537,4.4238 -1.46075,9.0219 -1.8782,13.69565c-0.42893,4.8022 -0.62607,9.83357 -0.62607,14.75036zM610.33319,173.053v-156.37191h5.38163v269.60674h-5.38163v-102.80005h-83.66397v102.80005h-5.38163v-269.60674h5.38163v156.37191zM639.81908,124.87328h5.20073v161.41455h-5.20073zM642.41945,85.33096l-3.54441,-2.42147c0,0 -1.18052,-4.83964 -1.18147,-7.2644c-0.00095,-2.43064 1.18147,-7.30185 1.18147,-7.30185l3.54441,-2.43395l3.54441,2.43395c0,0 1.18242,4.87121 1.18147,7.30185c-0.00095,2.42477 -1.18147,7.2644 -1.18147,7.2644zM717.46829,158.67398c0,0 1.94727,-10.86033 3.56137,-15.55231c1.54308,-4.48554 3.51251,-8.75679 5.79995,-12.10734c2.22267,-3.25567 4.8764,-6.08693 7.67108,-7.82608c2.81682,-1.75293 6.60143,-2.50981 9.17477,-2.60869c1.85639,-0.07134 3.26177,0.33273 4.81209,0.98918c1.55742,0.65946 3.08115,1.68448 4.50966,2.96755c1.48292,1.33194 2.88949,3.04051 4.20722,4.94591c1.39673,2.01962 2.72737,4.40036 3.90479,6.92427c1.22617,2.62842 2.34833,5.54631 3.27448,8.58747c0.95571,3.13822 1.72155,6.50803 2.33892,9.98543c0.64481,3.632 1.09131,7.46253 1.40335,11.3834c0.32796,4.12083 0.35191,6.44414 0.46778,12.78136c0.33522,18.33344 0,107.14371 0,107.14371h-5.22335c0,0 0.85316,-85.97375 0,-107.14371c-0.36136,-8.96673 -0.45328,-13.1574 -1.54326,-19.07218c-1.02965,-5.5874 -2.61948,-11.1425 -4.62978,-15.57728c-1.87018,-4.12565 -4.23733,-8.0939 -6.82314,-10.40982c-2.41994,-2.16736 -8.0781,-3.46994 -8.0781,-3.46994c0,0 -5.72533,1.38106 -8.21942,3.59476c-2.70467,2.4006 -5.22879,6.55463 -7.24711,10.78427c-2.13483,4.47381 -3.94379,10.03532 -5.07072,15.55231c-1.14812,5.62077 -1.29053,9.38828 -1.69024,17.89889c-0.97593,20.77965 0,107.84269 0,107.84269h-5.20073c0,0 0.88864,-86.9704 0,-107.84269c-0.36576,-8.59095 -0.4808,-12.42873 -1.54891,-18.11108c-1.03289,-5.49497 -2.64509,-11.03419 -4.64674,-15.48991c-1.87781,-4.18005 -4.22742,-8.29754 -6.82879,-10.67193c-2.42979,-2.21778 -8.14028,-3.55731 -8.14028,-3.55731c0,0 -5.74853,1.36784 -8.22507,3.59476c-2.66902,2.39999 -5.1227,6.56054 -7.08317,10.78427c-2.07819,4.47734 -3.79867,10.0455 -4.88417,15.55231c-1.1096,5.62909 -1.24301,9.39059 -1.62806,17.89889c-0.94049,20.7819 0,107.84269 0,107.84269h-5.20073v-161.76404h5.20073v22.66694c0,0 2.45299,-6.97507 4.04753,-10.07281c1.62269,-3.15242 3.57241,-6.20541 5.63036,-8.64988c2.01416,-2.39247 4.27984,-4.6009 6.5631,-5.91637c2.17975,-1.25584 4.54318,-2.08026 6.80052,-1.97212c2.26889,0.10869 4.64737,1.02133 6.77791,2.64614c2.31743,1.76734 4.55525,4.74841 6.49526,7.93842c2.08868,3.43448 3.96082,7.74191 5.48338,12.19471c1.59925,4.67709 3.78749,15.31516 3.78749,15.31516z" fill="#565656" stroke="#565656" stroke-width="10" stroke-linecap="round"/><path d="M14.14825,11.28896c125.74092,0 251.48184,0 377.22276,0c125.74092,0 251.48184,0 377.22276,0" fill="none" stroke="#000000" stroke-width="2" stroke-linecap="butt" visibility="hidden"/><path d="M14.14825,361.07874c125.74092,0 251.48184,0 377.22276,0c125.74092,0 251.48184,0 377.22276,0" fill="none" stroke="#000000" stroke-width="2" stroke-linecap="butt" visibility="hidden"/></g></g></svg>